<svg width="22" height="20" viewBox="0 0 22 20" fill="none" xmlns="http://www.w3.org/2000/svg">
<path d="M16.7895 15H5.73684L3.63158 1H1" stroke="black" stroke-width="1.5" stroke-linecap="round" stroke-linejoin="round"/>
<path d="M3.93234 2.99994H21L17.8421 11.9999H5.28572" stroke="black" stroke-width="1.5" stroke-linecap="round" stroke-linejoin="round"/>
<path d="M8.36845 19C9.53118 19 10.4737 18.1046 10.4737 17C10.4737 15.8954 9.53118 15 8.36845 15C7.20574 15 6.26318 15.8954 6.26318 17C6.26318 18.1046 7.20574 19 8.36845 19Z" stroke="black" stroke-width="1.5" stroke-linecap="round" stroke-linejoin="round"/>
<path d="M16.7895 19C17.9522 19 18.8947 18.1046 18.8947 17C18.8947 15.8954 17.9522 15 16.7895 15C15.6267 15 14.6842 15.8954 14.6842 17C14.6842 18.1046 15.6267 19 16.7895 19Z" stroke="black" stroke-width="1.5" stroke-linecap="round" stroke-linejoin="round"/>
</svg>
