<svg width="14" height="14" viewBox="0 0 14 14" fill="none" xmlns="http://www.w3.org/2000/svg">
<g clip-path="url(#clip0_5_895)">
<path d="M9.54544 0.636353V1.27272H10.8182V1.90908H11.4545V2.54544H12.0909V3.18181H12.7273V4.45453H13.3636V9.54544H12.7273V10.8182H12.0909V11.4545H11.4545V12.0909H10.8182V12.7273H9.54544V13.3636H4.45453V12.7273H3.18181V12.0909H2.54544V11.4545H1.90908V10.8182H1.27272V9.54544H0.636353V4.45453H1.27272V3.18181H1.90908V2.54544H2.54544V1.90908H3.18181V1.27272H4.45453V0.636353H9.54544ZM8.90908 1.90908H5.0909V2.54544H3.81817V3.18181H3.18181V3.81817H2.54544V5.0909H1.90908V8.90908H2.54544V10.1818H3.18181V10.8182H3.81817V11.4545H5.0909V12.0909H8.90908V11.4545H10.1818V10.8182H10.8182V10.1818H11.4545V8.90908H12.0909V5.0909H11.4545V3.81817H10.8182V3.18181H10.1818V2.54544H8.90908V1.90908ZM5.72726 3.81817H8.27272V4.45453H8.90908V5.72726H7.63635V5.0909H6.36363V8.90908H7.63635V8.27272H8.90908V9.54544H8.27272V10.1818H5.72726V9.54544H5.0909V4.45453H5.72726V3.81817Z" fill="#3D8AFF"/>
</g>
<defs>
<clipPath id="clip0_5_895">
<rect width="14" height="14" fill="white"/>
</clipPath>
</defs>
</svg>
