<svg width="128" height="32" viewBox="0 0 128 32" fill="none" xmlns="http://www.w3.org/2000/svg">
<path d="M21.8182 1.45459V2.90914H24.7273V4.36368H26.1819V5.81823H27.6364V7.27277H29.091V10.1819H30.5455V21.8182H29.091V24.7273H27.6364V26.1819H26.1819V27.6364H24.7273V29.091H21.8182V30.5455H10.1819V29.091H7.27277V27.6364H5.81823V26.1819H4.36368V24.7273H2.90914V21.8182H1.45459V10.1819H2.90914V7.27277H4.36368V5.81823H5.81823V4.36368H7.27277V2.90914H10.1819V1.45459H21.8182ZM20.3637 4.36368H11.6364V5.81823H8.72732V7.27277H7.27277V8.72732H5.81823V11.6364H4.36368V20.3637H5.81823V23.2728H7.27277V24.7273H8.72732V26.1819H11.6364V27.6364H20.3637V26.1819H23.2728V24.7273H24.7273V23.2728H26.1819V20.3637H27.6364V11.6364H26.1819V8.72732H24.7273V7.27277H23.2728V5.81823H20.3637V4.36368ZM13.091 8.72732H18.9091V10.1819H20.3637V13.091H17.4546V11.6364H14.5455V20.3637H17.4546V18.9091H20.3637V21.8182H18.9091V23.2728H13.091V21.8182H11.6364V10.1819H13.091V8.72732Z" fill="black"/>
<path d="M53.8182 1.45459V2.90914H56.7273V4.36368H58.1819V5.81823H59.6364V7.27277H61.091V10.1819H62.5455V21.8182H61.091V24.7273H59.6364V26.1819H58.1819V27.6364H56.7273V29.091H53.8182V30.5455H42.1819V29.091H39.2728V27.6364H37.8182V26.1819H36.3637V24.7273H34.9091V21.8182H33.4546V10.1819H34.9091V7.27277H36.3637V5.81823H37.8182V4.36368H39.2728V2.90914H42.1819V1.45459H53.8182ZM52.3637 4.36368H43.6364V5.81823H40.7273V7.27277H39.2728V8.72732H37.8182V11.6364H36.3637V20.3637H37.8182V23.2728H39.2728V24.7273H40.7273V26.1819H43.6364V27.6364H52.3637V26.1819H55.2728V24.7273H56.7273V23.2728H58.1819V20.3637H59.6364V11.6364H58.1819V8.72732H56.7273V7.27277H55.2728V5.81823H52.3637V4.36368ZM45.091 8.72732H50.9091V10.1819H52.3637V21.8182H50.9091V23.2728H45.091V21.8182H43.6364V10.1819H45.091V8.72732ZM46.5455 11.6364V20.3637H49.4546V11.6364H46.5455Z" fill="black"/>
<path d="M85.8182 1.45459V2.90914H88.7273V4.36368H90.1819V5.81823H91.6364V7.27277H93.091V10.1819H94.5455V21.8182H93.091V24.7273H91.6364V26.1819H90.1819V27.6364H88.7273V29.091H85.8182V30.5455H74.1819V29.091H71.2728V27.6364H69.8182V26.1819H68.3637V24.7273H66.9091V21.8182H65.4546V10.1819H66.9091V7.27277H68.3637V5.81823H69.8182V4.36368H71.2728V2.90914H74.1819V1.45459H85.8182ZM84.3637 4.36368H75.6364V5.81823H72.7273V7.27277H71.2728V8.72732H69.8182V11.6364H68.3637V20.3637H69.8182V23.2728H71.2728V24.7273H72.7273V26.1819H75.6364V27.6364H84.3637V26.1819H87.2728V24.7273H88.7273V23.2728H90.1819V20.3637H91.6364V11.6364H90.1819V8.72732H88.7273V7.27277H87.2728V5.81823H84.3637V4.36368ZM82.9091 8.72732V11.6364H81.4546V20.3637H82.9091V23.2728H77.091V20.3637H78.5455V11.6364H77.091V8.72732H82.9091Z" fill="black"/>
<path d="M117.818 1.45459V2.90914H120.727V4.36368H122.182V5.81823H123.636V7.27277H125.091V10.1819H126.545V21.8182H125.091V24.7273H123.636V26.1819H122.182V27.6364H120.727V29.091H117.818V30.5455H106.182V29.091H103.273V27.6364H101.818V26.1819H100.364V24.7273H98.9091V21.8182H97.4546V10.1819H98.9091V7.27277H100.364V5.81823H101.818V4.36368H103.273V2.90914H106.182V1.45459H117.818ZM116.364 4.36368H107.636V5.81823H104.727V7.27277H103.273V8.72732H101.818V11.6364H100.364V20.3637H101.818V23.2728H103.273V24.7273H104.727V26.1819H107.636V27.6364H116.364V26.1819H119.273V24.7273H120.727V23.2728H122.182V20.3637H123.636V11.6364H122.182V8.72732H120.727V7.27277H119.273V5.81823H116.364V4.36368ZM107.636 8.72732H110.545V11.6364H112V14.5455H113.455V8.72732H116.364V23.2728H113.455V20.3637H112V17.4546H110.545V23.2728H107.636V8.72732Z" fill="black"/>
</svg>
