<svg width="13" height="12" viewBox="0 0 13 12" fill="none" xmlns="http://www.w3.org/2000/svg">
<path d="M11.1875 6C11.1875 6.14918 11.1282 6.29226 11.0227 6.39775C10.9173 6.50324 10.7742 6.5625 10.625 6.5625H7.0625V10.125C7.0625 10.2742 7.00324 10.4173 6.89775 10.5227C6.79226 10.6282 6.64918 10.6875 6.5 10.6875C6.35082 10.6875 6.20774 10.6282 6.10225 10.5227C5.99676 10.4173 5.9375 10.2742 5.9375 10.125V6.5625H2.375C2.22582 6.5625 2.08274 6.50324 1.97725 6.39775C1.87176 6.29226 1.8125 6.14918 1.8125 6C1.8125 5.85082 1.87176 5.70774 1.97725 5.60225C2.08274 5.49676 2.22582 5.4375 2.375 5.4375H5.9375V1.875C5.9375 1.72582 5.99676 1.58274 6.10225 1.47725C6.20774 1.37176 6.35082 1.3125 6.5 1.3125C6.64918 1.3125 6.79226 1.37176 6.89775 1.47725C7.00324 1.58274 7.0625 1.72582 7.0625 1.875V5.4375H10.625C10.7742 5.4375 10.9173 5.49676 11.0227 5.60225C11.1282 5.70774 11.1875 5.85082 11.1875 6Z" fill="black"/>
</svg>
